<?xml version="1.0" encoding="UTF-8"?>
<!DOCTYPE svg PUBLIC "-//W3C//DTD SVG 1.1//EN" "http://www.w3.org/Graphics/SVG/1.1/DTD/svg11.dtd">
<!-- Creator: CorelDRAW 2021 (64-Bit) -->
<svg xmlns="http://www.w3.org/2000/svg" xml:space="preserve" width="11.6929in" height="8.26772in" version="1.1" style="shape-rendering:geometricPrecision; text-rendering:geometricPrecision; image-rendering:optimizeQuality; fill-rule:evenodd; clip-rule:evenodd"
viewBox="0 0 11692.91 8267.72"
 xmlns:xlink="http://www.w3.org/1999/xlink"
 xmlns:xodm="http://www.corel.com/coreldraw/odm/2003">
 <defs>
  <style type="text/css">
   <![CDATA[
    .fil0 {fill:#FEFEFE;fill-rule:nonzero}
   ]]>
  </style>
 </defs>
 <g id="Layer_x0020_1">
  <metadata id="CorelCorpID_0Corel-Layer"/>
  <g id="_2613042559440">
   <path class="fil0" d="M4767.24 4579.4l0 46.25 81 0 0 32.5 -81 0 0 63.75 -40.5 0 0 -175 132.25 0 0 32.5 -91.75 0zm1318.95 145.5c-17.83,0 -33.96,-3.87 -48.37,-11.63 -14.42,-7.75 -25.75,-18.5 -34,-32.25 -8.25,-13.75 -12.37,-29.29 -12.37,-46.63 0,-17.33 4.12,-32.87 12.37,-46.63 8.25,-13.75 19.58,-24.5 34,-32.25 14.42,-7.75 30.63,-11.63 48.63,-11.63 15.17,0 28.87,2.67 41.12,8 12.25,5.33 22.54,13 30.88,23l-26 24c-11.83,-13.67 -26.5,-20.5 -44,-20.5 -10.83,0 -20.5,2.37 -29,7.13 -8.5,4.75 -15.13,11.37 -19.88,19.87 -4.75,8.5 -7.12,18.17 -7.12,29 0,10.83 2.37,20.5 7.12,29 4.75,8.5 11.38,15.13 19.88,19.87 8.5,4.75 18.17,7.13 29,7.13 17.5,0 32.17,-6.92 44,-20.75l26 24c-8.33,10.17 -18.67,17.92 -31,23.25 -12.33,5.33 -26.09,8 -41.25,8zm-951.19 304.25l-81.25 0 -15.5 37.5 -41.5 0 78 -175 40 0 78.25 175 -42.5 0 -15.5 -37.5zm-12.75 -30.75l-27.75 -67 -27.75 67 55.5 0zm-153.38 -409c17.17,0 30.33,4.29 39.5,12.87 9.17,8.58 13.75,21.29 13.75,38.13l0 81.5 -17 0 0 -20.5c-4,6.83 -9.87,12.17 -17.63,16 -7.75,3.83 -16.96,5.75 -27.62,5.75 -14.67,0 -26.33,-3.5 -35,-10.5 -8.67,-7 -13,-16.25 -13,-27.75 0,-11.17 4.04,-20.17 12.12,-27 8.08,-6.83 20.96,-10.25 38.63,-10.25l41.75 0 0 -8c0,-11.33 -3.17,-19.96 -9.5,-25.87 -6.33,-5.92 -15.59,-8.87 -27.75,-8.87 -8.33,0 -16.33,1.37 -24,4.13 -7.67,2.75 -14.25,6.54 -19.75,11.37l-8 -13.25c6.67,-5.67 14.67,-10.04 24,-13.12 9.33,-3.08 19.17,-4.63 29.5,-4.63zm-6.25 119.75c10,0 18.58,-2.29 25.75,-6.87 7.17,-4.58 12.5,-11.21 16,-19.87l0 -21.5 -41.25 0c-22.5,0 -33.75,7.83 -33.75,23.5 0,7.67 2.91,13.71 8.75,18.13 5.83,4.42 14,6.62 24.5,6.62zm301.73 -119.75c16.5,0 29.46,4.75 38.87,14.25 9.42,9.5 14.13,23.5 14.13,42l0 76.25 -17.75 0 0 -74.5c0,-13.67 -3.29,-24.08 -9.87,-31.25 -6.58,-7.17 -15.87,-10.75 -27.87,-10.75 -13.67,0 -24.42,4.21 -32.25,12.63 -7.83,8.42 -11.75,20.04 -11.75,34.87l0 69 -17.75 0 0 -74.5c0,-13.67 -3.29,-24.08 -9.87,-31.25 -6.58,-7.17 -15.96,-10.75 -28.13,-10.75 -13.5,0 -24.21,4.21 -32.13,12.63 -7.92,8.42 -11.87,20.04 -11.87,34.87l0 69 -17.75 0 0 -131.5 17 0 0 24c4.67,-8 11.17,-14.17 19.5,-18.5 8.33,-4.33 17.91,-6.5 28.75,-6.5 11,0 20.54,2.33 28.63,7 8.08,4.67 14.13,11.58 18.13,20.75 4.83,-8.67 11.79,-15.46 20.87,-20.37 9.08,-4.92 19.46,-7.37 31.13,-7.37zm185.48 133.75c-12.67,0 -24.08,-2.88 -34.25,-8.63 -10.17,-5.75 -18.17,-13.71 -24,-23.88 -5.83,-10.17 -8.75,-21.67 -8.75,-34.5 0,-12.83 2.92,-24.33 8.75,-34.5 5.83,-10.17 13.83,-18.08 24,-23.75 10.17,-5.67 21.58,-8.5 34.25,-8.5 12.67,0 24.08,2.83 34.25,8.5 10.17,5.67 18.12,13.58 23.87,23.75 5.75,10.17 8.63,21.67 8.63,34.5 0,12.83 -2.88,24.33 -8.63,34.5 -5.75,10.17 -13.71,18.13 -23.87,23.88 -10.17,5.75 -21.59,8.63 -34.25,8.63zm0 -15.75c9.33,0 17.71,-2.13 25.13,-6.37 7.42,-4.25 13.21,-10.29 17.37,-18.13 4.17,-7.83 6.25,-16.75 6.25,-26.75 0,-10 -2.09,-18.91 -6.25,-26.75 -4.17,-7.83 -9.96,-13.87 -17.37,-18.13 -7.42,-4.25 -15.79,-6.37 -25.13,-6.37 -9.33,0 -17.71,2.13 -25.13,6.37 -7.42,4.25 -13.25,10.29 -17.5,18.13 -4.25,7.83 -6.37,16.75 -6.37,26.75 0,10 2.13,18.92 6.37,26.75 4.25,7.83 10.08,13.87 17.5,18.13 7.42,4.25 15.79,6.37 25.13,6.37zm251.48 -117l0 131.5 -17 0 0 -24c-4.67,8 -11.09,14.21 -19.25,18.63 -8.17,4.42 -17.5,6.63 -28,6.63 -17.17,0 -30.71,-4.8 -40.63,-14.38 -9.92,-9.58 -14.87,-23.63 -14.87,-42.13l0 -76.25 17.75 0 0 74.5c0,13.83 3.41,24.33 10.25,31.5 6.83,7.17 16.58,10.75 29.25,10.75 13.83,0 24.75,-4.2 32.75,-12.62 8,-8.42 12,-20.13 12,-35.13l0 -69 17.75 0zm114.98 132.75c-10.67,0 -20.87,-1.54 -30.63,-4.63 -9.75,-3.08 -17.37,-6.96 -22.87,-11.63l8 -14c5.5,4.33 12.42,7.87 20.75,10.63 8.33,2.75 17,4.12 26,4.12 12,0 20.87,-1.87 26.62,-5.62 5.75,-3.75 8.63,-9.04 8.63,-15.88 0,-4.83 -1.58,-8.62 -4.75,-11.37 -3.17,-2.75 -7.17,-4.83 -12,-6.25 -4.83,-1.42 -11.25,-2.79 -19.25,-4.13 -10.67,-2 -19.25,-4.04 -25.75,-6.13 -6.5,-2.08 -12.04,-5.63 -16.63,-10.63 -4.58,-5 -6.87,-11.91 -6.87,-20.75 0,-11 4.58,-20 13.75,-27 9.17,-7 21.92,-10.5 38.25,-10.5 8.5,0 17,1.13 25.5,3.37 8.5,2.25 15.5,5.21 21,8.87l-7.75 14.25c-10.83,-7.5 -23.75,-11.25 -38.75,-11.25 -11.33,0 -19.88,2 -25.63,6 -5.75,4 -8.63,9.25 -8.63,15.75 0,5 1.63,9 4.87,12 3.25,3 7.29,5.21 12.13,6.63 4.83,1.42 11.5,2.87 20,4.37 10.5,2 18.92,4 25.25,6 6.33,2 11.75,5.42 16.25,10.25 4.5,4.83 6.75,11.5 6.75,20 0,11.5 -4.8,20.63 -14.38,27.38 -9.58,6.75 -22.87,10.13 -39.87,10.13zm405.78 -132.75l17.75 0 0 131.5 -17.75 0 0 -131.5zm9 -28.75c-3.67,0 -6.75,-1.25 -9.25,-3.75 -2.5,-2.5 -3.75,-5.5 -3.75,-9 0,-3.33 1.25,-6.25 3.75,-8.75 2.5,-2.5 5.58,-3.75 9.25,-3.75 3.67,0 6.75,1.21 9.25,3.63 2.5,2.42 3.75,5.29 3.75,8.62 0,3.67 -1.25,6.75 -3.75,9.25 -2.5,2.5 -5.58,3.75 -9.25,3.75zm155.98 27.75c12.33,0 23.5,2.79 33.5,8.37 10,5.58 17.83,13.46 23.5,23.63 5.67,10.17 8.5,21.75 8.5,34.75 0,13.17 -2.83,24.83 -8.5,35 -5.67,10.17 -13.46,18.04 -23.37,23.63 -9.92,5.58 -21.13,8.38 -33.63,8.38 -10.67,0 -20.29,-2.21 -28.87,-6.63 -8.58,-4.42 -15.63,-10.88 -21.13,-19.38l0 73.25 -17.75 0 0 -180 17 0 0 26c5.33,-8.67 12.37,-15.33 21.12,-20 8.75,-4.67 18.63,-7 29.63,-7zm-1.25 118c9.17,0 17.5,-2.13 25,-6.37 7.5,-4.25 13.37,-10.29 17.62,-18.13 4.25,-7.83 6.38,-16.75 6.38,-26.75 0,-10 -2.13,-18.87 -6.38,-26.62 -4.25,-7.75 -10.12,-13.79 -17.62,-18.13 -7.5,-4.33 -15.83,-6.5 -25,-6.5 -9.33,0 -17.71,2.17 -25.13,6.5 -7.42,4.33 -13.25,10.37 -17.5,18.13 -4.25,7.75 -6.37,16.62 -6.37,26.62 0,10 2.12,18.92 6.37,26.75 4.25,7.83 10.08,13.87 17.5,18.13 7.42,4.25 15.79,6.37 25.13,6.37zm199.98 -118c16.5,0 29.62,4.79 39.37,14.37 9.75,9.58 14.63,23.54 14.63,41.87l0 76.25 -17.75 0 0 -74.5c0,-13.67 -3.42,-24.08 -10.25,-31.25 -6.83,-7.17 -16.59,-10.75 -29.25,-10.75 -14.17,0 -25.37,4.21 -33.63,12.63 -8.25,8.42 -12.37,20.04 -12.37,34.87l0 69 -17.75 0 0 -185.5 17.75 0 0 77c4.83,-7.67 11.5,-13.58 20,-17.75 8.5,-4.17 18.25,-6.25 29.25,-6.25zm247.23 72.25l-110 0c1,13.67 6.25,24.71 15.75,33.13 9.5,8.42 21.5,12.63 36,12.63 8.17,0 15.67,-1.46 22.5,-4.37 6.83,-2.92 12.75,-7.21 17.75,-12.88l10 11.5c-5.83,7 -13.13,12.33 -21.88,16 -8.75,3.67 -18.37,5.5 -28.87,5.5 -13.5,0 -25.46,-2.88 -35.87,-8.63 -10.42,-5.75 -18.54,-13.71 -24.37,-23.88 -5.83,-10.17 -8.75,-21.67 -8.75,-34.5 0,-12.83 2.79,-24.33 8.37,-34.5 5.58,-10.17 13.25,-18.08 23,-23.75 9.75,-5.67 20.71,-8.5 32.88,-8.5 12.17,0 23.08,2.83 32.75,8.5 9.67,5.67 17.25,13.54 22.75,23.63 5.5,10.08 8.25,21.62 8.25,34.62l-0.25 5.5zm-63.5 -57c-12.67,0 -23.3,4.04 -31.88,12.13 -8.58,8.08 -13.46,18.63 -14.62,31.63l93.25 0c-1.17,-13 -6.04,-23.54 -14.63,-31.63 -8.58,-8.08 -19.29,-12.13 -32.12,-12.13zm146.98 11.5c4.17,-8.83 10.37,-15.5 18.62,-20 8.25,-4.5 18.46,-6.75 30.63,-6.75l0 17.25 -4.25 -0.25c-13.83,0 -24.67,4.25 -32.5,12.75 -7.83,8.5 -11.75,20.42 -11.75,35.75l0 67 -17.75 0 0 -131.5 17 0 0 25.75zm-1668.87 265l17.75 0 0 185.5 -17.75 0 0 -185.5zm218.98 54l0 115.5c0,22.33 -5.46,38.87 -16.37,49.63 -10.92,10.75 -27.37,16.13 -49.37,16.13 -12.17,0 -23.71,-1.8 -34.63,-5.38 -10.92,-3.58 -19.79,-8.54 -26.63,-14.87l9 -13.5c6.33,5.67 14.04,10.08 23.13,13.25 9.08,3.17 18.63,4.75 28.63,4.75 16.67,0 28.91,-3.87 36.75,-11.63 7.83,-7.75 11.75,-19.79 11.75,-36.13l0 -16.75c-5.5,8.33 -12.71,14.67 -21.63,19 -8.92,4.33 -18.79,6.5 -29.63,6.5 -12.33,0 -23.54,-2.71 -33.63,-8.13 -10.08,-5.42 -18,-13 -23.75,-22.75 -5.75,-9.75 -8.63,-20.79 -8.63,-33.13 0,-12.33 2.87,-23.33 8.63,-33 5.75,-9.67 13.63,-17.17 23.63,-22.5 10,-5.33 21.25,-8 33.75,-8 11.17,0 21.25,2.25 30.25,6.75 9,4.5 16.25,11 21.75,19.5l0 -25.25 17 0zm-67.25 110.75c9.5,0 18.08,-2.04 25.75,-6.12 7.67,-4.08 13.63,-9.79 17.87,-17.13 4.25,-7.33 6.38,-15.67 6.38,-25 0,-9.33 -2.13,-17.63 -6.38,-24.87 -4.25,-7.25 -10.17,-12.92 -17.75,-17 -7.58,-4.08 -16.21,-6.13 -25.87,-6.13 -9.5,0 -18.04,2 -25.63,6 -7.58,4 -13.5,9.67 -17.75,17 -4.25,7.33 -6.37,15.67 -6.37,25 0,9.33 2.13,17.67 6.37,25 4.25,7.33 10.17,13.04 17.75,17.13 7.58,4.08 16.13,6.12 25.63,6.12zm200.73 22c-12.67,0 -24.08,-2.88 -34.25,-8.63 -10.17,-5.75 -18.17,-13.71 -24,-23.88 -5.83,-10.17 -8.75,-21.67 -8.75,-34.5 0,-12.83 2.92,-24.33 8.75,-34.5 5.83,-10.17 13.83,-18.08 24,-23.75 10.17,-5.67 21.58,-8.5 34.25,-8.5 12.67,0 24.08,2.83 34.25,8.5 10.17,5.67 18.12,13.58 23.87,23.75 5.75,10.17 8.63,21.67 8.63,34.5 0,12.83 -2.88,24.33 -8.63,34.5 -5.75,10.17 -13.71,18.13 -23.87,23.88 -10.17,5.75 -21.59,8.63 -34.25,8.63zm0 -15.75c9.33,0 17.71,-2.13 25.13,-6.37 7.42,-4.25 13.21,-10.29 17.37,-18.13 4.17,-7.83 6.25,-16.75 6.25,-26.75 0,-10 -2.09,-18.91 -6.25,-26.75 -4.17,-7.83 -9.96,-13.87 -17.37,-18.13 -7.42,-4.25 -15.79,-6.37 -25.13,-6.37 -9.33,0 -17.71,2.13 -25.13,6.37 -7.42,4.25 -13.25,10.29 -17.5,18.13 -4.25,7.83 -6.37,16.75 -6.37,26.75 0,10 2.13,18.92 6.37,26.75 4.25,7.83 10.08,13.87 17.5,18.13 7.42,4.25 15.79,6.37 25.13,6.37zm149.98 -91.25c4.17,-8.83 10.37,-15.5 18.62,-20 8.25,-4.5 18.46,-6.75 30.63,-6.75l0 17.25 -4.25 -0.25c-13.83,0 -24.67,4.25 -32.5,12.75 -7.83,8.5 -11.75,20.42 -11.75,35.75l0 67 -17.75 0 0 -131.5 17 0 0 25.75zm111.23 -25.75l17.75 0 0 131.5 -17.75 0 0 -131.5zm9 -28.75c-3.67,0 -6.75,-1.25 -9.25,-3.75 -2.5,-2.5 -3.75,-5.5 -3.75,-9 0,-3.33 1.25,-6.25 3.75,-8.75 2.5,-2.5 5.58,-3.75 9.25,-3.75 3.67,0 6.75,1.21 9.25,3.63 2.5,2.42 3.75,5.29 3.75,8.62 0,3.67 -1.25,6.75 -3.75,9.25 -2.5,2.5 -5.58,3.75 -9.25,3.75zm157.48 152.25c-3.33,3 -7.46,5.29 -12.37,6.87 -4.92,1.58 -10.04,2.38 -15.37,2.38 -12.33,0 -21.83,-3.33 -28.5,-10 -6.67,-6.67 -10,-16.08 -10,-28.25l0 -79.5 -23.5 0 0 -15 23.5 0 0 -28.75 17.75 0 0 28.75 40 0 0 15 -40 0 0 78.5c0,7.83 1.96,13.79 5.87,17.87 3.92,4.08 9.54,6.13 16.88,6.13 3.67,0 7.2,-0.58 10.62,-1.75 3.42,-1.17 6.38,-2.83 8.88,-5l6.25 12.75zm129.23 -124.5c16.5,0 29.62,4.79 39.37,14.37 9.75,9.58 14.63,23.54 14.63,41.87l0 76.25 -17.75 0 0 -74.5c0,-13.67 -3.42,-24.08 -10.25,-31.25 -6.83,-7.17 -16.59,-10.75 -29.25,-10.75 -14.17,0 -25.37,4.21 -33.63,12.63 -8.25,8.42 -12.37,20.04 -12.37,34.87l0 69 -17.75 0 0 -185.5 17.75 0 0 77c4.83,-7.67 11.5,-13.58 20,-17.75 8.5,-4.17 18.25,-6.25 29.25,-6.25zm296.23 0c16.5,0 29.46,4.75 38.87,14.25 9.42,9.5 14.13,23.5 14.13,42l0 76.25 -17.75 0 0 -74.5c0,-13.67 -3.29,-24.08 -9.87,-31.25 -6.58,-7.17 -15.87,-10.75 -27.87,-10.75 -13.67,0 -24.42,4.21 -32.25,12.63 -7.83,8.42 -11.75,20.04 -11.75,34.87l0 69 -17.75 0 0 -74.5c0,-13.67 -3.29,-24.08 -9.87,-31.25 -6.58,-7.17 -15.96,-10.75 -28.13,-10.75 -13.5,0 -24.21,4.21 -32.13,12.63 -7.92,8.42 -11.87,20.04 -11.87,34.87l0 69 -17.75 0 0 -131.5 17 0 0 24c4.67,-8 11.17,-14.17 19.5,-18.5 8.33,-4.33 17.91,-6.5 28.75,-6.5 11,0 20.54,2.33 28.63,7 8.08,4.67 14.13,11.58 18.13,20.75 4.83,-8.67 11.79,-15.46 20.87,-20.37 9.08,-4.92 19.46,-7.37 31.13,-7.37zm166.48 133.75c-10.67,0 -20.87,-1.54 -30.63,-4.63 -9.75,-3.08 -17.37,-6.96 -22.87,-11.63l8 -14c5.5,4.33 12.42,7.87 20.75,10.63 8.33,2.75 17,4.12 26,4.12 12,0 20.87,-1.87 26.62,-5.62 5.75,-3.75 8.63,-9.04 8.63,-15.88 0,-4.83 -1.58,-8.62 -4.75,-11.37 -3.17,-2.75 -7.17,-4.83 -12,-6.25 -4.83,-1.42 -11.25,-2.79 -19.25,-4.13 -10.67,-2 -19.25,-4.04 -25.75,-6.13 -6.5,-2.08 -12.04,-5.63 -16.63,-10.63 -4.58,-5 -6.87,-11.91 -6.87,-20.75 0,-11 4.58,-20 13.75,-27 9.17,-7 21.92,-10.5 38.25,-10.5 8.5,0 17,1.13 25.5,3.37 8.5,2.25 15.5,5.21 21,8.87l-7.75 14.25c-10.83,-7.5 -23.75,-11.25 -38.75,-11.25 -11.33,0 -19.88,2 -25.63,6 -5.75,4 -8.63,9.25 -8.63,15.75 0,5 1.63,9 4.87,12 3.25,3 7.29,5.21 12.13,6.63 4.83,1.42 11.5,2.87 20,4.37 10.5,2 18.92,4 25.25,6 6.33,2 11.75,5.42 16.25,10.25 4.5,4.83 6.75,11.5 6.75,20 0,11.5 -4.8,20.63 -14.38,27.38 -9.58,6.75 -22.87,10.13 -39.87,10.13z"/>
   <g>
    <g>
     <g>
      <path class="fil0" d="M5264.37 4083.08c-21.39,-15.58 -41.7,-32.86 -60.79,-51.94 -96.82,-96.49 -150.26,-224.88 -150.52,-361.58 -0.26,-136.66 52.75,-265.28 149.23,-362.11 96.47,-96.82 224.9,-150.34 361.59,-150.52 136.65,-0.26 265.28,52.73 362.11,149.26 21.03,20.93 21.09,54.99 0.14,76 -20.96,21.01 -54.93,20.96 -76.04,0.15 -76.43,-76.26 -178.02,-118.09 -286.04,-117.92 -107.96,0.26 -209.37,42.44 -285.58,118.97 -76.22,76.45 -118.09,178.03 -117.91,285.99 0.17,108 42.43,209.44 118.92,285.62 76.46,76.32 178.05,118.12 286.02,117.91 107.98,-0.19 209.42,-42.43 285.63,-118.92 20.94,-21.05 54.93,-21.01 76.02,-0.13 21.02,20.97 21.07,54.99 0.15,76.02 -96.48,96.84 -224.94,150.3 -361.59,150.52 -109.77,0.21 -214.31,-33.92 -301.35,-97.31z"/>
     </g>
     <g>
      <path class="fil0" d="M5389.11 3909.98c-12.35,-9.04 -24.11,-19.02 -35.16,-30.01 -115.67,-115.3 -115.99,-303.14 -0.76,-418.85 55.79,-56.04 130.11,-86.99 209.22,-87.14 79.08,-0.15 153.48,30.64 209.55,86.34 21.37,21.31 21.43,55.91 0.15,77.25 -21.33,21.36 -55.85,21.24 -77.27,0.17 -35.3,-35.29 -82.31,-54.6 -132.21,-54.52 -49.92,0.11 -96.8,19.63 -132.02,55.04 -72.76,73 -72.55,191.54 0.47,264.25 35.31,35.31 82.3,54.65 132.21,54.51 49.92,-0.07 96.82,-19.59 132.02,-54.95 21.31,-21.38 55.78,-21.33 77.26,-0.15 21.37,21.29 21.47,55.91 0.16,77.3 -55.85,55.96 -130.17,86.9 -209.26,87.07 -63.49,0.11 -123.95,-19.63 -174.34,-56.31z"/>
     </g>
    </g>
    <path class="fil0" d="M6276.37 4147.57l0 -160.23 -122.05 0 -67.8 -66.69 -0.23 -218.09 98.44 0c7.33,0 14.27,-2.89 19.52,-8.11l157.91 -157.56 117.1 0 0 53.98 160.17 0 0 -160.21 -160.17 0 0 50.98 -128.54 0c-7.28,0 -14.2,2.8 -19.55,8.08l-157.9 157.54 -190.96 0 141.84 -142.13c5.13,-5.14 7.98,-12 8.05,-19.65l-0.91 -115.45 51.31 0 0 -160.23 -160.19 0 0 160.23 53.61 0 0.86 104.24 -172.64 172.99 -272.81 0c-11.27,-30.46 -40.3,-52.23 -74.72,-52.23 -44.11,0 -79.84,35.71 -79.81,79.88 0,44.11 35.69,79.88 79.81,79.88 34.42,0 63.45,-21.83 74.72,-52.23l399.55 0 0.26 229.72c0,7.22 2.85,14.11 8.19,19.56l76.75 75.55 0 120.19 160.18 0z"/>
   </g>
  </g>
 </g>
</svg>
